<?xml version="1.0" encoding="UTF-8" standalone="no"?>
<!DOCTYPE svg PUBLIC "-//W3C//DTD SVG 1.1//EN" "http://www.w3.org/Graphics/SVG/1.1/DTD/svg11.dtd">
<svg width="100%" height="100%" viewBox="0 0 1024 1024" version="1.1" xmlns="http://www.w3.org/2000/svg" xmlns:xlink="http://www.w3.org/1999/xlink" xml:space="preserve" xmlns:serif="http://www.serif.com/" style="fill-rule:evenodd;clip-rule:evenodd;stroke-linejoin:round;stroke-miterlimit:2;">
    <g id="icon" transform="matrix(1,0,0,1,6,0)">
        <clipPath id="_clip1">
            <circle cx="506" cy="512" r="512"/>
        </clipPath>
        <g clip-path="url(#_clip1)">
            <g transform="matrix(1.80069,0,0,2.02049,-64.7885,-62.6096)">
                <g id="backgrounds">
                    <rect id="red" x="32.648" y="30.987" width="568.671" height="506.809" style="fill:rgb(209,0,0);"/>
                </g>
            </g>
            <g id="lettering">
                <g id="LP-shadow" serif:id="LP shadow">
                    <clipPath id="_clip2">
                        <circle cx="506" cy="518" r="396.72"/>
                    </clipPath>
                    <g clip-path="url(#_clip2)">
                        <g transform="matrix(1,0,0,1,-6,0)">
                            <path d="M313,800L412.066,955.662L767.842,893.324L928.933,630.548L702.108,279.56L369.177,275L313,800Z" style="fill-opacity:0.35;"/>
                        </g>
                        <path d="M427.24,580.607L503.866,699.643L449.902,734.381L373.276,615.345L427.24,580.607Z" style="fill-opacity:0.35;"/>
                        <path d="M721,699L820.083,849.223L773.574,879.898L674.491,729.676L721,699Z" style="fill-opacity:0.35;"/>
                        <path d="M427.023,309.498L536.08,478.916L458.492,528.86L349.435,359.442L427.023,309.498Z" style="fill-opacity:0.35;"/>
                    </g>
                </g>
                <g id="O-shadow" serif:id="O shadow" transform="matrix(1.00091,0,0,1.0009,-8.09929,-0.240361)">
                    <clipPath id="_clip3">
                        <path d="M1025.17,0.24L2.097,0.24L2.097,1023.32L1025.17,1023.32L1025.17,0.24ZM513.634,46.381C773.801,46.381 985.024,257.604 985.024,517.772C985.024,777.94 773.801,989.164 513.634,989.164C253.466,989.164 42.244,777.94 42.244,517.772C42.244,257.604 253.466,46.381 513.634,46.381Z"/>
                    </clipPath>
                    <g clip-path="url(#_clip3)">
                        <path d="M903.147,252.405L1294.75,863.823L501.159,1372.11L109.556,760.687L903.147,252.405Z" style="fill-opacity:0.35;"/>
                    </g>
                </g>
                <g id="O" transform="matrix(1.1044,0,0,1.1044,-41.2213,-44.0329)">
                    <path d="M495.492,81.687C731.28,81.687 922.709,273.117 922.709,508.904C922.709,744.691 731.28,936.12 495.492,936.12C259.705,936.12 68.276,744.691 68.276,508.904C68.276,273.117 259.705,81.687 495.492,81.687ZM495.492,149.598C693.799,149.598 854.799,310.597 854.799,508.904C854.799,707.21 693.799,868.21 495.492,868.21C297.186,868.21 136.186,707.21 136.186,508.904C136.186,310.597 297.186,149.598 495.492,149.598Z" style="fill:white;"/>
                </g>
                <g id="LP" transform="matrix(0.1,0,0,-0.1,-518,1536)">
                    <path d="M8250,13273L8250,7360L12390,7360L12390,8370L9450,8370L9450,9550L9748,9550C10387,9551 10845,9574 11115,9620C11735,9726 12239,10226 12383,10881C12426,11072 12435,11170 12435,11430C12435,11690 12426,11788 12383,11979C12308,12321 12162,12590 11925,12825C11682,13066 11428,13183 11060,13224C10780,13255 10555,13261 9408,13267L8250,13273ZM10460,12250C10664,12235 10771,12211 10888,12154C10972,12113 10997,12095 11080,12011C11189,11901 11233,11826 11275,11685C11328,11507 11319,11255 11254,11083C11170,10857 10979,10683 10749,10621C10585,10576 10472,10568 9948,10563L9450,10558L9450,12260L9883,12260C10120,12260 10380,12255 10460,12250Z" style="fill:white;fill-rule:nonzero;"/>
                </g>
            </g>
        </g>
    </g>
</svg>
